<svg width="100" height="60" viewBox="0 0 100 60" xmlns="http://www.w3.org/2000/svg">
  <!-- Parent background -->
  <defs>
    <linearGradient id="parentGrad" x1="0%" y1="0%" x2="100%" y2="100%">
      <stop offset="0%" style="stop-color:rgba(16,185,129,0.05);stop-opacity:1" />
      <stop offset="100%" style="stop-color:rgba(59,130,246,0.05);stop-opacity:1" />
    </linearGradient>
  </defs>
  
  <rect width="100" height="60" fill="url(#parentGrad)"/>
  
  <!-- Family and support elements -->
  <g fill="rgba(16, 185, 129, 0.1)" stroke="rgba(16, 185, 129, 0.15)" stroke-width="0.5">
    <!-- Family figures -->
    <circle cx="30" cy="25" r="4"/>
    <rect x="27" y="28" width="6" height="8" rx="2"/>
    
    <circle cx="45" cy="20" r="3"/>
    <rect x="42" y="22" width="6" height="7" rx="2"/>
    
    <circle cx="60" cy="25" r="4"/>
    <rect x="57" y="28" width="6" height="8" rx="2"/>
    
    <!-- Heart for care -->
    <path d="M75,20 C75,18 77,16 79,18 C81,16 83,18 83,20 C83,22 79,26 79,26 C79,26 75,22 75,20 Z" fill="rgba(239, 68, 68, 0.2)"/>
    
    <!-- Progress chart -->
    <rect x="15" y="45" width="2" height="8"/>
    <rect x="18" y="42" width="2" height="11"/>
    <rect x="21" y="40" width="2" height="13"/>
    <rect x="24" y="38" width="2" height="15"/>
  </g>
</svg>